<?xml version="1.0"?>
<svg width="300" height="100" xmlns="http://www.w3.org/2000/svg">
 <g class="layer">
  <g transform="matrix(0.773854 0 0 0.773854 -1.46438 -0.990957)">
   <g transform="matrix(2.05 0 0 2.05 -861.413 124.848)">
    <path d="m433,-2.8l0,-33.9l11.78,0l0,33.9l-11.78,0z" fill="#4a5963"/>
    <path d="m105.74,92.03c0,-3.72 2.93,-6.74 6.53,-6.74c3.61,0 6.53,3.02 6.53,6.74c0,3.72 -2.92,6.74 -6.53,6.74c-3.6,0 -6.53,-3.02 -6.53,-6.74z" fill="#97a5ad" transform="translate(340.9 -122.001)"/>
   </g>
   <g transform="matrix(2.05 0 0 2.05 -861.413 124.848)">
    <path d="m129.42,68.77l-19.19,47.12l-1.13,2.79l-10.29,0l-0.71,-1.75l-0.43,-1.04l-19.18,-47.12l13.87,0l11.59,30.57l11.61,-30.57l13.86,0z" fill="#4a5963" transform="translate(378.284 -122.015)"/>
   </g>
   <g transform="matrix(1 0 0 1 0 333.584)">
    <path d="m272.33,-216.28l-31.26,0l-22.65,-36.82l-2.64,0l0,36.82l-25.58,0l0,-102.32l40.61,0c10.82,0 32.25,4.47 32.25,32.76c0,19.06 -9.74,27.29 -19.41,30.63l28.7,38.93zm-35.1,-69.56c0,-9.37 -6.13,-12.12 -12.32,-12.12l-9.14,0l0,24.21l9.14,0c6.19,0 12.32,-2.75 12.32,-12.09z" fill="#4a5963"/>
   </g>
   <g transform="matrix(2.05 0 0 2.05 -861.412 124.848)">
    <path d="m602.8,-16.4c-4.22,8.19 -12.54,13.75 -22.85,13.75c-16.32,0 -25.87,-11.84 -25.87,-26.45c0,-14.61 9.55,-26.45 25.87,-26.45c10.28,0 18.49,5.43 22.73,13.47l-12.28,5.2c-2.07,-4.45 -5.93,-7.44 -10.74,-7.44c-7.81,0 -12.37,6.81 -12.37,15.22c0,8.4 4.56,15.21 12.37,15.21c4.8,0 8.69,-3.02 10.76,-7.52l12.38,5.01z" fill="#4a5963"/>
   </g>
  </g>
 </g>
</svg>